<?xml version="1.0" standalone="no"?>
<!DOCTYPE svg PUBLIC "-//W3C//DTD SVG 20010904//EN"
 "http://www.w3.org/TR/2001/REC-SVG-20010904/DTD/svg10.dtd">
<svg version="1.0" xmlns="http://www.w3.org/2000/svg"
 width="512.000000pt" height="512.000000pt" viewBox="0 0 512.000000 512.000000"
 preserveAspectRatio="xMidYMid meet">

<g transform="translate(0.000000,512.000000) scale(0.100000,-0.100000)"
fill="#000000" stroke="none">
<path d="M880 5050 c-124 -22 -229 -77 -321 -169 -74 -75 -117 -144 -151 -246
l-23 -70 0 -2005 0 -2005 23 -70 c34 -102 77 -171 151 -246 75 -74 144 -117
246 -151 l70 -23 1680 0 c1356 0 1690 3 1730 13 101 27 194 80 269 155 78 78
121 145 158 247 l23 65 0 2010 0 2010 -23 70 c-34 102 -77 171 -151 246 -75
75 -131 110 -234 148 l-72 26 -1665 1 c-916 1 -1685 -2 -1710 -6z m3129 -526
c37 -10 66 -29 96 -59 69 -68 75 -102 75 -405 0 -303 -6 -337 -75 -405 -80
-80 27 -75 -1545 -75 -1572 0 -1465 -5 -1545 75 -69 68 -75 102 -75 405 0 303
6 337 75 405 78 79 -29 74 1541 74 1243 1 1406 -1 1453 -15z m-1795 -1476 c55
-16 138 -99 154 -154 8 -29 12 -143 12 -380 0 -335 0 -340 -24 -390 -29 -62
-93 -118 -151 -133 -64 -16 -1044 -15 -1099 1 -55 16 -138 99 -154 154 -17 58
-17 690 0 748 15 51 99 137 148 153 52 16 1059 17 1114 1z m1800 0 c55 -16
138 -99 154 -154 17 -60 17 -2088 0 -2148 -16 -55 -99 -138 -154 -154 -59 -17
-1009 -17 -1068 0 -55 16 -138 99 -154 154 -17 60 -17 2088 0 2148 15 51 99
137 148 153 52 16 1019 17 1074 1z m-2052 -1825 c15 -13 18 -31 18 -101 0
-130 22 -122 -318 -122 -343 0 -322 -8 -322 118 0 130 -22 122 318 122 252 0
288 -2 304 -17z"/>
</g>
</svg>
